<svg xmlns="http://www.w3.org/2000/svg" xmlns:svg="http://www.w3.org/2000/svg" id="svg30" width="16" height="16" version="1.1" viewBox="0 0 16 16"><metadata id="metadata36"/><title id="title2">ionicons-v5-e</title><path id="path843" fill="#666" d="m 5.5,1.5003163 c -0.277,0 -0.5,0.227 -0.5,0.5 v 0.5 h 1 v -0.5 c 0,-0.277 -0.223,-0.5 -0.5,-0.5 z m 0.5,1 v 0.5 a 0.5,0.50000002 0 1 1 -1,0 v -0.5 H 3.5 c -0.831,0 -1.5,0.6690001 -1.5,1.5000001 v 8.9999996 c 0,0.831 0.669,1.500001 1.5,1.500001 h 9 c 0.831,0 1.5,-0.669001 1.5,-1.500001 V 4.0003164 c 0,-0.831 -0.669,-1.5000001 -1.5,-1.5000001 H 11 v 0.5 a 0.5000001,0.50000012 0 1 1 -1,0 v -0.5 z m 4,0 h 1 v -0.5 a 0.5000001,0.50000012 0 1 0 -1,0 z M 3.5,6.5003164 h 9 c 0.277,0 0.5,0.223 0.5,0.5 v 5.9999996 c 0,0.277 -0.223,0.5 -0.5,0.5 h -9 a 0.49899998,0.499 0 0 1 -0.5,-0.5 V 7.0003164 c 0,-0.277 0.223,-0.5 0.5,-0.5 z" color="#bebebe" overflow="visible" style="isolation:auto;mix-blend-mode:normal;fill:#fa1955;fill-opacity:1;marker:none"/></svg>