<svg xmlns="http://www.w3.org/2000/svg" xmlns:svg="http://www.w3.org/2000/svg" id="svg30" width="16" height="16" version="1.1" viewBox="0 0 16 16"><metadata id="metadata36"/><title id="title2">ionicons-v5-e</title><path id="path843" fill="#666" d="m 5.5,1.5000005 c -0.277,0 -0.5,0.227 -0.5,0.5 v 0.5 h 1 v -0.5 c 0,-0.277 -0.223,-0.5 -0.5,-0.5 z m 0.5,1 v 0.5 a 0.5,0.50000002 0 1 1 -1,0 v -0.5 H 3.5 c -0.831,0 -1.5,0.669 -1.5,1.5 V 13 c 0,0.831 0.669,1.5 1.5,1.5 h 9.000001 c 0.831,0 1.5,-0.669 1.5,-1.5 V 4.0000005 c 0,-0.831 -0.669,-1.5 -1.5,-1.5 h -1.5 v 0.5 a 0.5000005,0.50000052 0 1 1 -1.000001,0 v -0.5 z m 4,0 h 1.000001 v -0.5 a 0.5000005,0.50000052 0 1 0 -1.000001,0 z M 3.5,6.5000006 h 9.000001 c 0.277,0 0.5,0.223 0.5,0.5 V 13 c 0,0.277 -0.223,0.5 -0.5,0.5 H 3.5 A 0.49899998,0.499 0 0 1 3,13 V 7.0000006 c 0,-0.277 0.223,-0.5 0.5,-0.5 z" color="#bebebe" overflow="visible" style="isolation:auto;mix-blend-mode:normal;fill:#fafafa;fill-opacity:1;marker:none"/></svg>