<svg xmlns="http://www.w3.org/2000/svg" xmlns:osb="http://www.openswatchbook.org/uri/2009/osb" xmlns:svg="http://www.w3.org/2000/svg" xmlns:xlink="http://www.w3.org/1999/xlink" id="svg11300" width="32" height="32" version="1.0" viewBox="0 0 32 32" style="display:inline;enable-background:new"><metadata id="metadata93"/><title id="title4162">elementary Icon Template</title><defs id="defs3"><linearGradient id="linearGradient7258"><stop id="stop7254" offset="0" style="stop-color:#fff;stop-opacity:1"/><stop id="stop7256" offset="1" style="stop-color:#eef8fe;stop-opacity:1"/></linearGradient><linearGradient id="linearGradient3924-4-8"><stop id="stop3926-0-4" offset="0" style="stop-color:#fff;stop-opacity:1"/><stop id="stop3928-6-8" offset=".063" style="stop-color:#fff;stop-opacity:.23529412"/><stop id="stop3930-2-1" offset=".951" style="stop-color:#fff;stop-opacity:.15686275"/><stop id="stop3932-9-0" offset="1" style="stop-color:#fff;stop-opacity:.39215687"/></linearGradient><linearGradient id="linearGradient3702-501-757-6-946"><stop id="stop3228" offset="0" style="stop-color:#181818;stop-opacity:0"/><stop id="stop3230" offset=".5" style="stop-color:#181818;stop-opacity:1"/><stop id="stop3232" offset="1" style="stop-color:#181818;stop-opacity:0"/></linearGradient><linearGradient id="linearGradient4161" x1="24" x2="24" y1="5" y2="43" gradientTransform="matrix(0.67567568,0,0,0.67567568,123.78378,93.78379)" gradientUnits="userSpaceOnUse" xlink:href="#linearGradient3924-4-8"/><radialGradient id="radialGradient5600-7" cx="7.9" cy="10.028" r="12.672" fx="6.633" fy="10.028" gradientTransform="matrix(6.0103372e-7,3.1565973,-2.8409371,5.4093024e-7,168.49,67.06234)" gradientUnits="userSpaceOnUse" xlink:href="#linearGradient2867-449-88-871-390-598-476-591-434-148-57-177-8-3-3-6-4-8-8-8-5-6"/><radialGradient id="radialGradient2976" cx="4.993" cy="43.5" r="2.5" fx="4.993" fy="43.5" gradientTransform="matrix(1.4764724,0,0,0.59999988,142.93862,97.40001)" gradientUnits="userSpaceOnUse" xlink:href="#linearGradient3688-166-749-6"/><linearGradient id="linearGradient3688-166-749-6"><stop id="stop2883-8" offset="0" style="stop-color:#181818;stop-opacity:1"/><stop id="stop2885-3" offset="1" style="stop-color:#181818;stop-opacity:0"/></linearGradient><radialGradient id="radialGradient2978" cx="4.993" cy="43.5" r="2.5" fx="4.993" fy="43.5" gradientTransform="matrix(1.4764724,0,0,0.59999988,-137.06138,-149.6)" gradientUnits="userSpaceOnUse" xlink:href="#linearGradient3688-166-749-6"/><linearGradient id="linearGradient2980" x1="25.058" x2="25.058" y1="47.028" y2="39.999" gradientTransform="matrix(0.73684208,0,0,0.42857134,122.31579,104.85715)" gradientUnits="userSpaceOnUse" xlink:href="#linearGradient3702-501-757-6-946"/><linearGradient id="linearGradient2867-449-88-871-390-598-476-591-434-148-57-177-8-3-3-6-4-8-8-8-5-6"><stop id="stop3750-1-0-7-6-6-1-3-9-5-1" offset="0" style="stop-color:#74c5f7;stop-opacity:1"/><stop id="stop7287" offset=".609" style="stop-color:#1da1f2;stop-opacity:1"/><stop id="stop3756-1-6-2-6-6-1-96-6-2-3" offset="1" style="stop-color:#0d8cdb;stop-opacity:1"/></linearGradient><linearGradient id="linearGradient7260" x1="129" x2="129" y1="141" y2="164" gradientTransform="matrix(0.94444444,0,0,0.94444444,26.666667,-33.500768)" gradientUnits="userSpaceOnUse" xlink:href="#linearGradient7258"/><linearGradient id="linearGradient4526" osb:paint="solid"><stop id="stop4528" offset="0" style="stop-color:#fff;stop-opacity:1"/></linearGradient></defs><g id="g153" transform="translate(-124,-94)"><rect id="rect2801-0-3" width="3.684" height="3" x="150.316" y="122" style="opacity:.4;fill:url(#radialGradient2976);fill-opacity:1;stroke:none;stroke-width:.5619514"/><rect id="rect3696-2-6" width="3.684" height="3" x="-129.684" y="-125" transform="scale(-1)" style="opacity:.4;fill:url(#radialGradient2978);fill-opacity:1;stroke:none;stroke-width:.5619514"/><rect id="rect3700-1-7" width="20.632" height="3" x="129.684" y="122" style="opacity:.4;fill:url(#linearGradient2980);fill-opacity:1;stroke:none;stroke-width:.5619514"/><rect id="rect5505-5" width="27" height="27" x="126.5" y="96.5" rx="2.16" ry="2.16" style="color:#000;display:inline;overflow:visible;visibility:visible;fill:url(#radialGradient5600-7);fill-opacity:1;fill-rule:nonzero;stroke:none;stroke-width:.99999994;marker:none;enable-background:accumulate"/><rect id="rect6741-7-4-3" width="25" height="25" x="127.5" y="97.5" rx="1.087" ry="1.087" style="opacity:.5;fill:none;stroke:url(#linearGradient4161);stroke-width:1;stroke-linecap:round;stroke-linejoin:round;stroke-miterlimit:4;stroke-dasharray:none;stroke-dashoffset:0;stroke-opacity:1"/><rect id="rect5505-6" width="27" height="27" x="126.5" y="96.5" rx="2.16" ry="2.16" style="color:#000;clip-rule:nonzero;display:inline;overflow:visible;visibility:visible;opacity:1;isolation:auto;mix-blend-mode:normal;color-interpolation:sRGB;color-interpolation-filters:linearRGB;solid-color:#000;solid-opacity:1;fill:none;fill-opacity:1;fill-rule:nonzero;stroke:#042c45;stroke-width:1;stroke-linecap:round;stroke-linejoin:round;stroke-miterlimit:4;stroke-dasharray:none;stroke-dashoffset:0;stroke-opacity:.4;marker:none;color-rendering:auto;image-rendering:auto;shape-rendering:auto;text-rendering:auto;enable-background:accumulate"/><path id="path7266" d="m 141.96744,104.34056 c -1.27289,0.38631 -2.49774,2.10535 -2.11354,4.05006 -4.22463,-0.25441 -6.0904,-2.51825 -7.21229,-3.60168 -1.14347,2.01854 0.0291,3.98057 1.05342,4.61563 -0.54056,0.0297 -1.19436,-0.20392 -1.51896,-0.4072 -0.12332,1.86225 1.39411,3.15319 2.68517,3.48778 -0.4127,0.1231 -0.80164,0.13966 -1.46648,0.0407 0.56617,1.87298 2.0872,2.37427 3.22036,2.45672 -1.45872,1.26577 -3.21036,1.5418 -5.11512,1.44873 4.93842,3.02145 9.92551,1.1626 12.3527,-1.2086 2.03831,-1.99114 2.94952,-4.97275 2.98107,-7.64059 0.46653,-0.37915 1.40984,-1.18279 1.66623,-1.81179 -0.37206,0.14313 -1.10809,0.48363 -1.87618,0.51425 0.63254,-0.41448 1.35746,-1.24504 1.43332,-1.89445 -0.70037,0.38145 -1.51088,0.71198 -2.20501,0.81738 -1.30859,-1.26332 -2.58285,-1.26216 -3.88485,-0.86701 z" style="opacity:.05;fill:#042c45;fill-opacity:1;stroke:#042c45;stroke-width:2;stroke-linejoin:round;stroke-miterlimit:4;stroke-dasharray:none;stroke-opacity:1"/><path id="path7262" d="m 141.96744,104.34056 c -1.27289,0.38631 -2.49774,2.10535 -2.11354,4.05006 -4.22463,-0.25441 -6.0904,-2.51825 -7.21229,-3.60168 -1.14347,2.01854 0.0291,3.98057 1.05342,4.61563 -0.54056,0.0297 -1.19436,-0.20392 -1.51896,-0.4072 -0.12332,1.86225 1.39411,3.15319 2.68517,3.48778 -0.4127,0.1231 -0.80164,0.13966 -1.46648,0.0407 0.56617,1.87298 2.0872,2.37427 3.22036,2.45672 -1.45872,1.26577 -3.21036,1.5418 -5.11512,1.44873 4.93842,3.02145 9.92551,1.1626 12.3527,-1.2086 2.03831,-1.99114 2.94952,-4.97275 2.98107,-7.64059 0.46653,-0.37915 1.40984,-1.18279 1.66623,-1.81179 -0.37206,0.14313 -1.10809,0.48363 -1.87618,0.51425 0.63254,-0.41448 1.35746,-1.24504 1.43332,-1.89445 -0.70037,0.38145 -1.51088,0.71198 -2.20501,0.81738 -1.30859,-1.26332 -2.58285,-1.26216 -3.88485,-0.86701 z" style="opacity:.15;fill:#042c45;fill-opacity:1;stroke-width:1"/><path id="path7243" d="m 141.96744,103.34056 c -1.27289,0.38631 -2.49774,2.10535 -2.11354,4.05006 -4.22463,-0.25441 -6.0904,-2.51825 -7.21229,-3.60168 -1.14347,2.01854 0.0291,3.98057 1.05342,4.61563 -0.54056,0.0297 -1.19436,-0.20392 -1.51896,-0.4072 -0.12332,1.86225 1.39411,3.15319 2.68517,3.48778 -0.4127,0.1231 -0.80164,0.13966 -1.46648,0.0407 0.56617,1.87298 2.0872,2.37427 3.22036,2.45672 -1.45872,1.26577 -3.21036,1.5418 -5.11512,1.44873 4.93842,3.02145 9.92551,1.1626 12.3527,-1.2086 2.03831,-1.99114 2.94952,-4.97275 2.98107,-7.64059 0.46653,-0.37915 1.40984,-1.18279 1.66623,-1.81179 -0.37206,0.14313 -1.10809,0.48363 -1.87618,0.51425 0.63254,-0.41448 1.35746,-1.24504 1.43332,-1.89445 -0.70037,0.38145 -1.51088,0.71198 -2.20501,0.81738 -1.30859,-1.26332 -2.58285,-1.26216 -3.88485,-0.86701 z" style="fill:url(#linearGradient7260);fill-opacity:1;stroke-width:1"/></g></svg>