<svg xmlns="http://www.w3.org/2000/svg" xmlns:svg="http://www.w3.org/2000/svg" xmlns:xlink="http://www.w3.org/1999/xlink" id="svg5157" width="128" height="128" version="1.1"><defs id="defs5159"><linearGradient id="linearGradient3820-7-2-8-6"><stop id="stop3822-2-6-5-0" offset="0" style="stop-color:#3d3d3d;stop-opacity:1"/><stop id="stop3864-8-7-4-1" offset=".5" style="stop-color:#686868;stop-opacity:.49803922"/><stop id="stop3824-1-2-6-7" offset="1" style="stop-color:#686868;stop-opacity:0"/></linearGradient><linearGradient id="linearGradient4806"><stop style="stop-color:#fff;stop-opacity:1" id="stop4808" offset="0"/><stop style="stop-color:#fff;stop-opacity:.23529412" id="stop4810" offset=".424"/><stop style="stop-color:#fff;stop-opacity:.15686275" id="stop4812" offset=".821"/><stop style="stop-color:#fff;stop-opacity:.39215687" id="stop4814" offset="1"/></linearGradient><linearGradient id="linearGradient3118" x1="71.204" x2="71.204" y1="15.369" y2="40.496" gradientTransform="matrix(4.16388,0,0,4.16388,-236.03265,-50.534426)" gradientUnits="userSpaceOnUse" xlink:href="#linearGradient4806"/><radialGradient id="radialGradient3163" cx="99.157" cy="186.171" r="62.769" fx="99.157" fy="186.171" gradientTransform="matrix(0.6869404,0,0,0.21461693,-4.02174,68.573331)" gradientUnits="userSpaceOnUse" xlink:href="#linearGradient3820-7-2-8-6"/><radialGradient id="radialGradient3022" cx="21.995" cy="4.038" r="20.397" fx="21.995" fy="4.038" gradientTransform="matrix(0,7.3851891,-9.7483181,0,103.39581,-165.08013)" gradientUnits="userSpaceOnUse" xlink:href="#linearGradient947-2"/><linearGradient id="linearGradient3242-7-3-8-0-4-58-06"><stop style="stop-color:#cdf87e;stop-opacity:1" id="stop3244-5-8-5-6-4-3-8" offset="0"/><stop style="stop-color:#a2e34f;stop-opacity:1" id="stop3246-9-5-1-5-3-0-7" offset=".262"/><stop style="stop-color:#68b723;stop-opacity:1" id="stop3248-7-2-0-7-5-35-9" offset=".661"/><stop style="stop-color:#1d7e0d;stop-opacity:1" id="stop3250-8-2-8-5-6-40-4" offset="1"/></linearGradient><linearGradient id="linearGradient4011"><stop style="stop-color:#fff;stop-opacity:1" id="stop4013" offset="0"/><stop style="stop-color:#fff;stop-opacity:.23529412" id="stop4015" offset=".508"/><stop style="stop-color:#fff;stop-opacity:.15686275" id="stop4017" offset=".835"/><stop style="stop-color:#fff;stop-opacity:.39215687" id="stop4019" offset="1"/></linearGradient><radialGradient id="radialGradient3163-3" cx="99.157" cy="186.171" r="62.769" fx="99.157" fy="186.171" gradientTransform="matrix(0.6869404,0,0,0.21461693,-4.02174,68.573331)" gradientUnits="userSpaceOnUse" xlink:href="#linearGradient3820-7-2-8-6"/><linearGradient id="linearGradient12398-3" x1="71.204" x2="71.204" y1="6.238" y2="44.341" gradientTransform="matrix(2.756758,0,0,2.7567581,-133.25196,-3.4037532)" gradientUnits="userSpaceOnUse" xlink:href="#linearGradient4011"/><linearGradient id="linearGradient11527-6-5" x1="2035.165" x2="2035.165" y1="3208.074" y2="3241.997" gradientTransform="matrix(3.9856242,0,0,2.9796372,-8061.4657,-9541.5191)" gradientUnits="userSpaceOnUse" xlink:href="#linearGradient947-2"/><linearGradient id="linearGradient947-2"><stop style="stop-color:#64baff;stop-opacity:1" id="stop943-7" offset="0"/><stop style="stop-color:#3689e6;stop-opacity:1" id="stop945-0" offset="1"/></linearGradient></defs><metadata id="metadata5162"/><path style="fill:url(#radialGradient3163);fill-opacity:1;stroke:none" id="path3818-0-5-0" d="m 107.21186,108.52868 c 0.005,7.44114 -19.301247,13.47421 -43.118643,13.47421 -23.817396,0 -43.123773,-6.03307 -43.118643,-13.47421 -0.0051,-7.44114 19.801244,-13.474207 43.61864,-13.474207 23.817396,0 42.623776,6.033067 42.618646,13.474207 z"/><path style="fill:url(#radialGradient3022);fill-opacity:1;stroke:none;stroke-width:1.00365412;stroke-linecap:round;stroke-linejoin:round;stroke-miterlimit:4;stroke-dasharray:none;stroke-dashoffset:0;stroke-opacity:1" id="path2555-9" d="m 64.499999,13.5 c -28.691804,0 -52.000005,23.308193 -52.000005,51.999998 0,28.69181 23.308201,52.000022 52.000005,52.000002 C 93.191796,117.5 116.50002,94.191808 116.5,65.499998 116.5,36.808193 93.191796,13.5 64.499999,13.5 Z"/><path style="color:#000;clip-rule:nonzero;display:inline;overflow:visible;visibility:visible;opacity:.5;isolation:auto;mix-blend-mode:normal;color-interpolation:sRGB;color-interpolation-filters:linearRGB;solid-color:#000;solid-opacity:1;fill:none;fill-opacity:1;fill-rule:nonzero;stroke:#0d52bf;stroke-width:1;stroke-linecap:round;stroke-linejoin:round;stroke-miterlimit:4;stroke-dasharray:none;stroke-dashoffset:0;stroke-opacity:1;marker:none;color-rendering:auto;image-rendering:auto;shape-rendering:auto;text-rendering:auto;enable-background:accumulate" id="path2555-7-1" d="m 64.5,13.499999 c -28.691806,0 -52.000001,23.308189 -52.000001,51.999997 0,28.691808 23.308195,52.000014 52.000001,52.000004 28.691802,0 52.00002,-23.308196 52,-52.000004 0,-28.691808 -23.308198,-51.999997 -52,-51.999997 z"/><path style="color:#000;display:inline;overflow:visible;visibility:visible;opacity:.7;fill:none;stroke:url(#linearGradient3118);stroke-width:1;stroke-linecap:round;stroke-linejoin:round;stroke-miterlimit:4;stroke-dasharray:none;stroke-dashoffset:0;stroke-opacity:1;marker:none;enable-background:accumulate" id="path3019" d="m 115.5,65.500001 c 0,28.166516 -22.833502,50.999989 -51.000026,50.999989 -28.166487,0 -50.999973,-22.833473 -50.999973,-50.999989 0,-28.166517 22.833486,-50.999991 50.999973,-50.999991 28.166524,0 51.000026,22.833474 51.000026,50.999991 z"/><path style="color:#000;clip-rule:nonzero;display:inline;overflow:visible;visibility:visible;opacity:.15;isolation:auto;mix-blend-mode:normal;color-interpolation:sRGB;color-interpolation-filters:linearRGB;solid-color:#000;solid-opacity:1;fill:#206612;fill-opacity:1;fill-rule:evenodd;stroke:none;stroke-width:1;stroke-linecap:butt;stroke-linejoin:miter;stroke-miterlimit:4;stroke-dasharray:none;stroke-dashoffset:0;stroke-opacity:1;marker:none;color-rendering:auto;image-rendering:auto;shape-rendering:auto;text-rendering:auto;enable-background:accumulate" id="path4306" d="M 57.999997,36.957031 C 57.424224,36.957617 56.957614,37.424227 56.957028,38 l 0,21.958984 -21.957028,0 c -0.575773,5.86e-4 -1.042383,0.467196 -1.042969,1.042969 l 0,12 c 5.86e-4,0.575773 0.467196,1.042383 1.042969,1.042969 l 21.957028,0 0,21.955078 c 5.86e-4,0.575773 0.467196,1.042383 1.042969,1.042969 l 13,0 C 71.57577,97.042383 72.04238,96.575773 72.042966,96 l 0,-21.955078 20.957034,0 c 0.575773,-5.86e-4 1.042383,-0.467196 1.042969,-1.042969 l 0,-12 C 94.042383,60.42618 93.575773,59.95957 93,59.958984 l -20.957034,0 0,-21.958984 C 72.04238,37.424227 71.57577,36.957617 70.999997,36.957031 Z"/><path id="rect3007-2" d="m 58,38.000001 0,23.001819 -23,0 0,12 23,0 L 58,96 l 13,0 0,-22.99818 22,0 0,-12 -22,0 0,-23.001819 z" style="color:#000;clip-rule:nonzero;display:inline;overflow:visible;visibility:visible;opacity:.3;isolation:auto;mix-blend-mode:normal;color-interpolation:sRGB;color-interpolation-filters:linearRGB;solid-color:#000;solid-opacity:1;fill:#206612;fill-opacity:1;fill-rule:evenodd;stroke:none;stroke-width:1;stroke-linecap:butt;stroke-linejoin:miter;stroke-miterlimit:4;stroke-dasharray:none;stroke-dashoffset:0;stroke-opacity:1;marker:none;color-rendering:auto;image-rendering:auto;shape-rendering:auto;text-rendering:auto;enable-background:accumulate"/><path id="rect3007" d="M 58,36.998181 58,60 l -23,0 0,12 23,0 0,22.99818 13,0 L 71,72 93,72 93,60 71,60 71,36.998181 Z" style="color:#000;display:inline;overflow:visible;visibility:visible;fill:#fff;fill-opacity:1;fill-rule:evenodd;stroke:none;stroke-width:1;marker:none;enable-background:accumulate"/></svg>