<svg xmlns="http://www.w3.org/2000/svg" xmlns:svg="http://www.w3.org/2000/svg" id="svg6" width="16" height="16" version="1.1"><metadata id="metadata12"/><rect id="rect822" width="14.685" height="14.685" x=".657" y=".657" ry="2.837" style="opacity:1;fill:#3689e6;fill-opacity:1;stroke:#0d52bf;stroke-width:.314685;stroke-miterlimit:4;stroke-dasharray:none;stroke-opacity:.811111;paint-order:markers stroke fill"/><g style="color:#bebebe;fill:#fff;fill-opacity:1" id="g4" transform="matrix(0.91666667,0,0,0.91666667,-1129.5833,289.41667)"><path id="path2" d="m 1236.5,-313 c -0.83,0 -1.5,0.669 -1.5,1.5 v 9 c 0,0.831 0.67,1.5 1.5,1.5 h 9 c 0.831,0 1.5,-0.669 1.5,-1.5 v -9 c 0,-0.831 -0.669,-1.5 -1.5,-1.5 h -2.5 z m 0.5,1 h 8 c 0.554,0 1,0.446 1,1 v 6 h -3 c 0,1.108 -0.892,2 -2,2 -1.108,0 -2,-0.892 -2,-2 h -3 v -6 c 0,-0.554 0.446,-1 1,-1 z" overflow="visible" style="overflow:visible;fill:#fff;fill-opacity:1;marker:none"/></g></svg>