<svg xmlns="http://www.w3.org/2000/svg" xmlns:svg="http://www.w3.org/2000/svg" id="svg8" width="16" height="16" class="ionicon" version="1.1" viewBox="0 0 16 16"><metadata id="metadata14"/><title id="title2">Pricetag</title><g id="g841" transform="matrix(0.03125688,0,0,0.03125688,-0.00486764,-2.1927703e-4)"><path id="path4" fill="none" stroke="currentColor" stroke-linecap="round" stroke-linejoin="round" stroke-width="32" d="m 435.25,48 h -122.9 a 14.46,14.46 0 0 0 -10.2,4.2 L 56.45,297.9 a 28.85,28.85 0 0 0 0,40.7 l 117,117 a 28.85,28.85 0 0 0 40.7,0 L 459.75,210 a 14.46,14.46 0 0 0 4.2,-10.2 V 76.8 A 28.66,28.66 0 0 0 435.25,48 Z" style="stroke:#3689e6;stroke-opacity:1"/><path id="path6" d="m 384,160 a 32,32 0 1 1 32,-32 32,32 0 0 1 -32,32 z" style="fill:#3689e6;fill-opacity:1"/></g></svg>