<svg xmlns="http://www.w3.org/2000/svg" xmlns:svg="http://www.w3.org/2000/svg" id="svg8" width="16" height="16" version="1.1" viewBox="0 0 16 16"><metadata id="metadata14"/><title id="title2">ionicons-v5-p</title><path style="fill:none;stroke:#fafafa;stroke-width:1.00044px;stroke-linecap:round;stroke-linejoin:round;stroke-opacity:1" id="path4" d="M 13.602494,1.5002209 H 9.7601678 a 0.45207515,0.45207515 0 0 0 -0.318891,0.131308 l -7.681526,7.681526 a 0.90196183,0.90196183 0 0 0 0,1.2724381 l 3.657869,3.65787 a 0.90196183,0.90196183 0 0 0 1.272439,0 L 14.368458,6.5649629 a 0.45207515,0.45207515 0 0 0 0.131308,-0.318891 v -3.845452 a 0.8960217,0.8960217 0 0 0 -0.897272,-0.900399 z"/><path id="path6" d="m 12.000222,5.0017709 a 1.0004429,1.0004429 0 1 1 1.000443,-1.000443 1.0004429,1.0004429 0 0 1 -1.000443,1.000443 z" style="fill:#fafafa;fill-opacity:1;stroke-width:.0312638;stroke:none;stroke-opacity:1"/></svg>