<svg xmlns="http://www.w3.org/2000/svg" xmlns:svg="http://www.w3.org/2000/svg" id="svg6" width="16" height="16" version="1.1" viewBox="0 0 16 16"><metadata id="metadata12"/><title id="title2">ionicons-v5-m</title><path style="fill:none;stroke:#5297ff;stroke-width:1px;stroke-linecap:round;stroke-miterlimit:10;stroke-opacity:1" id="path4" d="M 2.500005,14.5 V 2.129375 a 0.25,0.25 0 0 1 0.125,-0.215625 C 2.869068,1.770625 3.528755,1.5 5.000005,1.5 c 2,0 4.53125,1.5 6,1.5 a 6.2353126,6.2353126 0 0 0 2.413438,-0.492812 0.0625,0.0625 0 0 1 0.08656,0.05781 v 6.855 a 0.125,0.125 0 0 1 -0.07469,0.114062 c -0.2575,0.112813 -1.165,0.465938 -2.425313,0.465938 -1.5,0 -4,-1 -6,-1 -2,0 -2.5,0.5 -2.5,0.5"/></svg>