<svg xmlns="http://www.w3.org/2000/svg" xmlns:svg="http://www.w3.org/2000/svg" id="svg8" width="16" height="16" version="1.1" viewBox="0 0 4.233 4.233"><metadata id="metadata5"/><g id="layer1"><g id="g878" transform="matrix(1.005952,0,0,1.0059768,0.02293823,-0.00471463)"><path id="path857" d="M 1.8978629,1.8858932 V 2.4679766 H 1.3157795 V 2.7590185 H 1.8978629 V 3.3411018 H 2.1889046 V 2.7590185 H 2.7709878 V 2.4679766 H 2.1889046 V 1.8858932 Z M 0.62878997,1.46762 H 3.5338907 c 0.1424144,0 0.2570657,0.1146497 0.2570657,0.2570621 v 1.7653313 c 0,0.1424123 -0.1146513,0.257062 -0.2570657,0.257062 H 0.62878997 c -0.14241439,0 -0.2570657,-0.1146497 -0.2570657,-0.257062 V 1.7246821 c 0,-0.1424124 0.11465131,-0.2570621 0.2570657,-0.2570621 z" style="color:#bebebe;fill:#666;fill-opacity:1;stroke-width:.145521;marker:none"/><g style="fill-rule:evenodd" id="g1031" transform="matrix(0.26458333,0,0,0.26458333,-0.03532623,-0.0078869)"><rect id="rect873" width="8.631" height="1.077" x="3.685" y="1.808" ry=".538" style="opacity:1;fill:#666;fill-opacity:1;fill-rule:evenodd;stroke:none;stroke-width:1.61961;stroke-miterlimit:4;stroke-dasharray:none;stroke-opacity:1;paint-order:markers stroke fill"/></g><g style="fill-rule:evenodd" id="g1028" transform="matrix(0.26458333,0,0,0.26458333,-0.03532623,-0.0078869)"><rect id="rect873-7" width="10.785" height="1.077" x="2.608" y="3.623" ry=".538" style="opacity:1;fill:#666;fill-opacity:1;fill-rule:evenodd;stroke:none;stroke-width:1.81047;stroke-miterlimit:4;stroke-dasharray:none;stroke-opacity:1;paint-order:markers stroke fill"/></g></g></g></svg>